<svg width="450" height="153" viewBox="0 0 450 153" fill="none" xmlns="http://www.w3.org/2000/svg">
<path d="M60.8796 33L33 120H56.0854L83.965 33H60.8796Z" fill="white"/>
<path d="M130.189 105.096L134.958 120H158.043L141.732 69.0872L130.189 105.096Z" fill="white"/>
<path d="M107.077 32.9999L79.1973 120H102.283L130.162 32.9999H107.077Z" fill="white"/>
<path d="M282.993 50.424C286.589 51.624 289.058 54.456 289.058 59.208C289.058 65.4 284.856 69 279.528 69H264.021V33H277.449C282.82 33 287.065 36.696 287.065 42.936C287.065 46.536 285.246 48.984 282.993 50.424ZM270.519 62.664H278.575C280.784 62.664 282.517 60.648 282.517 58.296C282.517 55.944 280.784 53.448 278.575 53.448H270.519V62.664ZM270.519 47.592H276.669C278.835 47.592 280.568 46.008 280.568 43.656C280.568 41.304 278.835 39.288 276.669 39.288H270.519V47.592Z" fill="white"/>
<path d="M251.986 61.704H237.865L235.396 69H228.336L241.374 33H248.694L261.732 69H254.671L251.986 61.704ZM239.771 55.464H250.123L245.056 40.344L239.771 55.464Z" fill="white"/>
<path d="M191.043 33H201.315L206.402 51.0754C207.663 55.6024 208.666 60.776 208.666 60.776H208.763C208.763 60.776 209.722 55.5916 210.983 51.0754L216.103 33H226.515V69H219.724V48.3593C219.724 45.4383 220.026 40.9006 220.026 40.9006H219.929C219.929 40.9006 219.121 45.1365 218.366 47.7557L212.169 69H205.174L199.138 47.7557C198.383 45.1365 197.575 40.9006 197.575 40.9006H197.467C197.467 40.9006 197.769 45.4383 197.769 48.3593V69H191.075L191.043 33Z" fill="white"/>
<path d="M407.382 94.6936C412.978 94.6936 416.257 97.9648 416.257 103.826V120H409.306V104.689C409.306 102.19 407.95 100.963 405.327 100.963C402.617 100.963 399.994 102.508 399.994 105.098V120H393.043V95.0116H399.294L399.688 98.0557C401.48 95.9657 404.497 94.6936 407.382 94.6936Z" fill="white"/>
<path d="M378.359 119.997C371.102 119.997 365.943 114.318 365.943 107.139C365.943 99.9151 371.102 94.2814 378.359 94.2814C385.572 94.2814 390.774 99.9151 390.774 107.139C390.774 114.318 385.572 119.997 378.359 119.997ZM372.763 107.139C372.763 110.819 374.993 113.682 378.359 113.682C381.638 113.682 383.955 110.819 383.955 107.139C383.955 103.459 381.638 100.551 378.359 100.551C374.993 100.551 372.763 103.459 372.763 107.139Z" fill="white"/>
<path d="M360.247 93.0799C358.367 93.0799 356.793 91.4859 356.793 89.4819C356.793 87.478 358.367 85.8384 360.247 85.8384C362.17 85.8384 363.744 87.478 363.744 89.4819C363.744 91.4859 362.17 93.0799 360.247 93.0799ZM356.88 119.997V94.9473H363.7V119.997H356.88Z" fill="white"/>
<path d="M353.076 119.997C346.382 119.997 343.109 119.587 343.109 111.446L343.109 98.7905H339.043L339.043 94.5271C339.043 94.5271 339.961 94.5271 343.109 94.5271L343.109 94.8293V85.8384H349.491V94.5258H354.239V98.7905H349.491L349.491 110.991C349.491 113.694 350.323 114.7 353.076 114.7L354.348 114.703V119.997H353.076Z" fill="white"/>
<path d="M326.172 119.995C319.09 119.995 314.543 114.725 314.543 107.228C314.543 99.7316 319.09 94.5521 326.172 94.5521C335.44 94.5521 337.8 100.867 338.15 104.775H332.073C331.811 102.458 329.625 100.413 326.784 100.413C323.155 100.413 321.407 103.275 321.407 107.228C321.407 111.135 323.155 114.043 326.784 114.043C329.625 114.043 331.767 111.726 332.073 109.545H338.15C337.8 113.725 335.483 119.995 326.172 119.995Z" fill="white"/>
<path d="M311.757 94.7806V119.769H305.549L305.155 116.634C303.363 118.77 300.346 119.996 297.505 119.996C292.215 119.996 288.543 115.998 288.543 110.364V94.7806H295.494V109.501C295.494 112.045 296.98 113.681 299.516 113.681C302.183 113.681 304.849 112.045 304.849 109.501V94.7806H311.757Z" fill="white"/>
<path d="M285.337 85.8384V119.725L279.348 119.77L278.824 117.324C277.075 119.181 274.758 119.997 272.004 119.997C265.49 119.997 260.943 114.696 260.943 107.493C260.943 100.29 265.49 94.6271 272.004 94.6271C274.627 94.6271 276.813 95.6238 278.474 97.3V85.8384H285.337ZM267.807 107.493C267.807 111.117 269.993 114.017 273.359 114.017C275.676 114.017 277.599 112.431 278.474 110.121V104.866C277.599 102.555 275.676 100.924 273.359 100.924C269.993 100.924 267.807 103.824 267.807 107.493Z" fill="white"/>
<path d="M246.459 119.997C239.202 119.997 234.043 114.318 234.043 107.139C234.043 99.9151 239.202 94.2814 246.459 94.2814C253.672 94.2814 258.874 99.9151 258.874 107.139C258.874 114.318 253.672 119.997 246.459 119.997ZM240.863 107.139C240.863 110.819 243.092 113.682 246.459 113.682C249.737 113.682 252.054 110.819 252.054 107.139C252.054 103.459 249.737 100.551 246.459 100.551C243.092 100.551 240.863 103.459 240.863 107.139Z" fill="white"/>
<path d="M233.356 94.7372V101.052C227.498 101.052 224.394 102.915 224.394 109.185V119.998H217.443V95.0098H223.957L224.351 98.4173C225.094 96.6908 228.023 94.7372 233.356 94.7372Z" fill="white"/>
<path d="M205.907 84C211.371 84 215.612 89.7597 215.612 95.6633C215.612 101.615 211.371 107.087 205.907 107.087H197.644V119.998H191.043V84H205.907ZM197.644 101.183H205.295C207.699 101.183 209.623 98.4472 209.623 95.7113C209.623 93.0715 207.699 90.2876 205.295 90.2876H197.644V101.183Z" fill="white"/>
</svg>
