<svg width="384" height="87" viewBox="0 0 384 87" fill="none" xmlns="http://www.w3.org/2000/svg">
<g clip-path="url(#clip0_33_340)">
<path d="M27.8796 0L0 86.9999H23.0854L50.965 0H27.8796Z" fill="#061B4A"/>
<path d="M97.1895 72.0961L101.958 86.9999H125.043L108.732 36.0872L97.1895 72.0961Z" fill="#061B4A"/>
<path d="M74.0769 -6.10352e-05L46.1973 86.9998H69.2826L97.1623 -6.10352e-05H74.0769Z" fill="#061B4A"/>
<path d="M249.993 17.424C253.589 18.624 256.058 21.456 256.058 26.208C256.058 32.4 251.856 36 246.528 36H231.021V0H244.449C249.82 0 254.065 3.696 254.065 9.936C254.065 13.536 252.246 15.984 249.993 17.424ZM237.519 29.664H245.575C247.784 29.664 249.517 27.648 249.517 25.296C249.517 22.944 247.784 20.448 245.575 20.448H237.519V29.664ZM237.519 14.592H243.669C245.835 14.592 247.568 13.008 247.568 10.656C247.568 8.304 245.835 6.288 243.669 6.288H237.519V14.592Z" fill="#061B4A"/>
<path d="M218.986 28.704H204.866L202.397 36H195.336L208.374 0H215.694L228.732 36H221.672L218.986 28.704ZM206.772 22.464H217.124L212.056 7.344L206.772 22.464Z" fill="#061B4A"/>
<path d="M158.043 0H168.315L173.402 18.0754C174.663 22.6024 175.666 27.776 175.666 27.776H175.763C175.763 27.776 176.722 22.5916 177.983 18.0754L183.103 0H193.515V36H186.724V15.3593C186.724 12.4383 187.026 7.9006 187.026 7.9006H186.929C186.929 7.9006 186.121 12.1365 185.366 14.7557L179.169 36H172.174L166.138 14.7557C165.383 12.1365 164.575 7.9006 164.575 7.9006H164.467C164.467 7.9006 164.769 12.4383 164.769 15.3593V36H158.075L158.043 0Z" fill="#061B4A"/>
<path d="M374.382 61.6936C379.978 61.6936 383.257 64.9648 383.257 70.8258V87.0002H376.306V71.689C376.306 69.1902 374.95 67.9634 372.327 67.9634C369.617 67.9634 366.994 69.5082 366.994 72.0979V87.0002H360.043V62.0116H366.294L366.688 65.0557C368.48 62.9657 371.497 61.6936 374.382 61.6936Z" fill="#061B4A"/>
<path d="M345.358 86.9968C338.101 86.9968 332.943 81.3176 332.943 74.1391C332.943 66.9151 338.101 61.2814 345.358 61.2814C352.572 61.2814 357.774 66.9151 357.774 74.1391C357.774 81.3176 352.572 86.9968 345.358 86.9968ZM339.763 74.1391C339.763 77.8192 341.992 80.6815 345.358 80.6815C348.637 80.6815 350.954 77.8192 350.954 74.1391C350.954 70.459 348.637 67.5512 345.358 67.5512C341.992 67.5512 339.763 70.459 339.763 74.1391Z" fill="#061B4A"/>
<path d="M327.247 60.0799C325.367 60.0799 323.793 58.4859 323.793 56.4819C323.793 54.478 325.367 52.8384 327.247 52.8384C329.17 52.8384 330.744 54.478 330.744 56.4819C330.744 58.4859 329.17 60.0799 327.247 60.0799ZM323.88 86.9967V61.9473H330.7V86.9967H323.88Z" fill="#061B4A"/>
<path d="M320.076 86.9967C313.382 86.9967 310.109 86.5873 310.109 78.4457L310.109 65.7905H306.043L306.043 61.5271C306.043 61.5271 306.961 61.5271 310.109 61.5271L310.109 61.8293V52.8384H316.491V61.5258H321.239V65.7905H316.491L316.491 77.9909C316.491 80.6938 317.323 81.7001 320.076 81.7001L321.348 81.7032V86.9967H320.076Z" fill="#061B4A"/>
<path d="M293.172 86.995C286.09 86.995 281.543 81.7247 281.543 74.2281C281.543 66.7316 286.09 61.5521 293.172 61.5521C302.44 61.5521 304.8 67.8674 305.15 71.7747H299.073C298.811 69.4576 296.625 67.4131 293.784 67.4131C290.155 67.4131 288.407 70.2754 288.407 74.2281C288.407 78.1354 290.155 81.0432 293.784 81.0432C296.625 81.0432 298.767 78.726 299.073 76.5452H305.15C304.8 80.7251 302.483 86.995 293.172 86.995Z" fill="#061B4A"/>
<path d="M278.757 61.7806V86.7691H272.549L272.155 83.6342C270.363 85.7696 267.346 86.9963 264.505 86.9963C259.215 86.9963 255.543 82.9982 255.543 77.3644V61.7806H262.494V76.5011C262.494 79.0454 263.98 80.681 266.516 80.681C269.183 80.681 271.849 79.0454 271.849 76.5011V61.7806H278.757Z" fill="#061B4A"/>
<path d="M252.337 52.8384V86.7248L246.348 86.7701L245.823 84.3238C244.074 86.1812 241.757 86.9967 239.003 86.9967C232.489 86.9967 227.943 81.6962 227.943 74.4931C227.943 67.29 232.489 61.6271 239.003 61.6271C241.626 61.6271 243.812 62.6238 245.473 64.3V52.8384H252.337ZM234.806 74.4931C234.806 78.1173 236.992 81.0167 240.358 81.0167C242.675 81.0167 244.599 79.4311 245.473 77.1207V71.8655C244.599 69.5551 242.675 67.9242 240.358 67.9242C236.992 67.9242 234.806 70.8236 234.806 74.4931Z" fill="#061B4A"/>
<path d="M213.459 86.9968C206.202 86.9968 201.043 81.3176 201.043 74.1391C201.043 66.9151 206.202 61.2814 213.459 61.2814C220.672 61.2814 225.874 66.9151 225.874 74.1391C225.874 81.3176 220.672 86.9968 213.459 86.9968ZM207.863 74.1391C207.863 77.8192 210.092 80.6815 213.459 80.6815C216.737 80.6815 219.054 77.8192 219.054 74.1391C219.054 70.459 216.737 67.5512 213.459 67.5512C210.092 67.5512 207.863 70.459 207.863 74.1391Z" fill="#061B4A"/>
<path d="M200.356 61.7372V68.0525C194.498 68.0525 191.394 69.9152 191.394 76.1851V86.9983H184.443V62.0098H190.957L191.35 65.4173C192.093 63.6908 195.022 61.7372 200.356 61.7372Z" fill="#061B4A"/>
<path d="M172.907 51C178.371 51 182.612 56.7597 182.612 62.6633C182.612 68.615 178.371 74.0867 172.907 74.0867H164.644V86.998H158.043V51H172.907ZM164.644 68.183H172.295C174.699 68.183 176.623 65.4472 176.623 62.7113C176.623 60.0715 174.699 57.2876 172.295 57.2876H164.644V68.183Z" fill="#061B4A"/>
</g>
<defs>
<clipPath id="clip0_33_340">
<rect width="383.243" height="87" fill="white"/>
</clipPath>
</defs>
</svg>
