<?xml version="1.0" encoding="UTF-8"?>
<svg id="Layer_2" data-name="Layer 2" xmlns="http://www.w3.org/2000/svg" viewBox="0 0 70.24 26.12">
  <defs>
    <style>
      .cls-1 {
        fill: #fdfdfd;
      }

      .cls-2 {
        fill: #c0262b;
      }
    </style>
  </defs>
  <g id="Layer_1-2" data-name="Layer 1">
    <g>
      <g>
        <path class="cls-2" d="M0,26.08c.12-.07,.21-.18,.31-.28,.94-.93,1.87-1.87,2.81-2.8,1.62-1.61,3.23-3.23,4.85-4.84,1.3-1.3,2.61-2.6,3.91-3.9,1.31-1.3,2.62-2.61,3.92-3.91,1.96-1.96,3.93-3.91,5.89-5.87,1.3-1.3,2.61-2.6,3.91-3.9,.18-.18,.36-.35,.53-.53,.07-.07,.11-.08,.19,0,.21,.22,.44,.44,.66,.66,1.52,1.52,3.03,3.04,4.56,4.55,.1,.09,.09,.14,0,.23-.56,.55-1.11,1.11-1.67,1.65-1.53,1.49-3.02,3.01-4.53,4.51-.56,.55-1.11,1.11-1.67,1.66-1.58,1.54-3.13,3.12-4.69,4.67-.51,.5-1.01,1.02-1.53,1.52-2.09,2.05-4.15,4.14-6.23,6.2-.12,.12-.25,.23-.36,.35-.06,.06-.13,.05-.2,.05-2.62,0-5.24,0-7.86,0-.94,0-1.88,0-2.82,0v-.03Z"/>
        <path class="cls-2" d="M19.05,26.11h-1.5c.06-.06,.1-.11,.14-.15,.44-.44,.87-.89,1.32-1.31,.9-.85,1.74-1.75,2.63-2.6,.89-.85,1.73-1.74,2.62-2.59,.9-.86,1.76-1.77,2.66-2.63,.88-.84,1.72-1.73,2.6-2.57,.9-.86,1.75-1.77,2.65-2.62,.86-.82,1.67-1.69,2.53-2.51,.93-.88,1.81-1.82,2.74-2.71,.89-.85,1.73-1.75,2.62-2.59,.9-.86,1.75-1.77,2.66-2.62,.4-.37,.77-.77,1.17-1.15,.09-.09,.13-.07,.21,0,.73,.75,1.47,1.49,2.2,2.24,.46,.48,.94,.95,1.41,1.43,.54,.56,1.09,1.11,1.64,1.66,.07,.07,.06,.1,0,.16-.61,.59-1.21,1.19-1.82,1.78-.39,.37-.76,.75-1.14,1.12-.48,.47-.95,.94-1.44,1.4-.44,.42-.86,.85-1.3,1.27-.87,.85-1.74,1.7-2.61,2.54-.07,.07-.14,.14-.21,.19-.08,.06-.05,.1,0,.16,.48,.49,.95,.99,1.42,1.48,.71,.74,1.43,1.49,2.14,2.23,.44,.46,.88,.93,1.33,1.39,.72,.75,1.43,1.49,2.15,2.24,.45,.47,.91,.95,1.36,1.42,.47,.49,.95,.99,1.42,1.48,.46,.48,.91,.95,1.37,1.43,.12,.12,.23,.25,.37,.4h-1.43c-.05-.03-.11-.01-.16-.01-.95,0-1.9,0-2.85,0-.06,0-.11,0-.17,0-.01,0-.03,0-.04,0-1.05,0-2.1,0-3.16,0-.05-.03-.11-.01-.16-.01-.85,0-1.7,0-2.54,0-.06,0-.11,0-.17,0-.31-.31-.63-.62-.92-.94-.31-.34-.65-.65-.98-.98-.27-.27-.55-.53-.81-.81-.65-.71-1.37-1.34-2.02-2.05-.55-.6-1.16-1.14-1.71-1.73-.07-.08-.11-.08-.19,0-.93,.94-1.86,1.87-2.78,2.82-.54,.56-1.09,1.11-1.64,1.66-.65,.66-1.31,1.32-1.96,1.99-.01,.01-.02,.03-.03,.05-.05,.03-.11,.02-.16,.02-.88,0-1.76,0-2.64,0-.06,0-.11-.01-.17,.01-1.11,0-2.21,0-3.32,0-.05,.02-.11,0-.17,0-1,0-2,0-3,0-.05,0-.11-.01-.16,.01Z"/>
        <path class="cls-2" d="M70.24,26.11c-.08,0-.14,0-.19,0-3.59,0-7.18,0-10.77,0-.11,0-.2-.03-.28-.11-1-1.01-2.02-1.99-3.01-3.01-1.24-1.28-2.53-2.52-3.77-3.8-1.17-1.21-2.39-2.37-3.55-3.59-.47-.5-.97-.97-1.45-1.46-.08-.08-.06-.12,0-.18,.74-.7,1.44-1.43,2.18-2.13,.5-.47,.96-.98,1.46-1.44,.61-.57,1.19-1.17,1.79-1.76,.1-.1,.16-.06,.24,.02,1.95,1.96,3.9,3.91,5.84,5.88,.92,.94,1.86,1.87,2.79,2.8,.8,.81,1.61,1.61,2.41,2.42,1.73,1.77,3.49,3.5,5.23,5.26,.35,.36,.71,.71,1.08,1.1Z"/>
      </g>
      <path class="cls-1" d="M19.05,26.11s.06-.02,.09-.02c1.08,0,2.16,0,3.24,0-.04,.04-.1,.02-.15,.02-1.06,0-2.12,0-3.18,0Z"/>
      <path class="cls-1" d="M47.77,26.09c1.04,0,2.08,0,3.12,0,.02,0,.04,0,.06,.01-1.02,0-2.04,0-3.06,0-.04,0-.08,0-.12-.02Z"/>
      <path class="cls-1" d="M25.69,26.08c.06,0,.11-.01,.17-.01,.89,0,1.79,0,2.68,0,.04,0,.08,0,.12,0-.03,.05-.08,.03-.13,.03-.95,0-1.9,0-2.84,0Z"/>
      <path class="cls-1" d="M41.7,26.06c.92,0,1.85,0,2.77,0,.03,0,.07,0,.1,.01-.92,0-1.84,0-2.76,0-.04,0-.08,0-.12-.02Z"/>
    </g>
  </g>
</svg>